<svg id="SvgjsSvg1057" width="288" height="288" xmlns="http://www.w3.org/2000/svg" version="1.1" xmlns:xlink="http://www.w3.org/1999/xlink" xmlns:svgjs="http://svgjs.com/svgjs"><circle id="SvgjsCircle1067" r="144" cx="144" cy="144" transform="matrix(0.01,0,0,0.01,142.56,142.56)" fill="#87ddfd"></circle><defs id="SvgjsDefs1058"></defs><g id="SvgjsG1059" transform="matrix(0.17,0,0,0.17,123.57543514251708,123.64138231277465)"><svg xmlns="http://www.w3.org/2000/svg" viewBox="0 0 72.5 66.94" width="288" height="288"><g data-name="Layer 2" fill="#000000" class="color000 svgShape"><path fill="#16a6a7" d="M52.5 10.5h-22a20.06 20.06 0 0 0-20 20v6A20.06 20.06 0 0 0 24 55.39v11.55L34.46 56.5h18a20.06 20.06 0 0 0 20-20v-6a20.06 20.06 0 0 0-19.96-20z" opacity=".15" class="colorb76a8a svgShape"></path><path fill="none" stroke="#222248" stroke-miterlimit="10" stroke-width="5" d="M44.5 2.5h-22a20.06 20.06 0 0 0-20 20v6A20.06 20.06 0 0 0 16 47.39v11.55L26.46 48.5h18a20.06 20.06 0 0 0 20-20v-6a20.06 20.06 0 0 0-19.96-20z" class="colorStroke6a80b9 svgStroke"></path></g></svg></g></svg>