<svg xmlns="http://www.w3.org/2000/svg" width="24" height="24" fill="none" viewBox="0 0 24 24" id="shield-check"><path fill="#C4E6FF" fill-rule="evenodd" d="M13.2361 17.382C14.93 16.535 16 14.8037 16 12.9098V1.91003L19.4851 2.77892C20.3754 3.0015 21 3.80147 21 4.71921V13.118C21 16.5611 19.0547 19.7087 15.9751 21.2485L12.8944 22.7888C12.6129 22.9296 12.3063 23 12 23V19.2361C12 18.4785 12.428 17.786 13.1056 17.4472L13.2361 17.382Z" clip-rule="evenodd"></path><path fill="#1E93FF" fill-rule="evenodd" d="M16.7071 8.2929C17.0976 8.68342 17.0976 9.31659 16.7071 9.70711L11.7071 14.7071C11.3166 15.0976 10.6834 15.0976 10.2929 14.7071L7.2929 11.7071C6.90237 11.3166 6.90237 10.6834 7.29289 10.2929C7.68341 9.90237 8.31657 9.90237 8.7071 10.2929L11 12.5857L15.2929 8.29289C15.6834 7.90237 16.3166 7.90237 16.7071 8.2929Z" clip-rule="evenodd"></path><path fill="#024493" fill-rule="evenodd" d="M12 3C11.9185 3 11.8371 3.00995 11.7575 3.02986L5 4.71922L5 13.118C5 15.8036 6.51731 18.2587 8.91935 19.4597L12 21L15.0807 19.4597C17.4827 18.2587 19 15.8036 19 13.118V4.71922L12.2425 3.02986C12.1629 3.00995 12.0815 3 12 3ZM11.2724 1.08957C11.5113 1.02986 11.7556 1 12 1C12.2444 1 12.4887 1.02986 12.7276 1.08957L19.4851 2.77894C20.3754 3.00152 21 3.80149 21 4.71922V13.118C21 16.5611 19.0547 19.7087 15.9751 21.2485L12.8944 22.7889C12.6129 22.9296 12.3063 23 12 23C11.6937 23 11.3871 22.9296 11.1056 22.7889L8.02492 21.2485C4.94532 19.7087 3 16.5611 3 13.118V4.71922C3 3.80149 3.62459 3.00152 4.51493 2.77894L11.2724 1.08957Z" clip-rule="evenodd"></path></svg>